<svg width="106" height="88" viewBox="0 0 106 88" fill="none" xmlns="http://www.w3.org/2000/svg">
<path d="M0.329446 45.8248L0.149261 45.7712L0.146346 45.7844L0.329446 45.8248ZM-1.1441 52.5063L-0.961658 52.5497L-0.960997 52.5467L-1.1441 52.5063ZM16.7154 51.8558L16.8977 51.8999L16.8979 51.8988L16.7154 51.8558ZM18.17 45.6721L17.9877 45.6285L17.9875 45.6292L18.17 45.6721ZM-10.3561 53.3905L-10.1738 53.4343L-10.1732 53.4319L-10.3561 53.3905ZM-8.64878 45.8342L-8.83113 45.7905L-8.83167 45.7929L-8.64878 45.8342ZM27.1875 45.8342L27.0052 45.7906L27.0047 45.7928L27.1875 45.8342ZM25.4773 53.3884L25.6596 53.432L25.6601 53.4298L25.4773 53.3884ZM0.146346 45.7844L-1.3272 52.466L-0.960997 52.5467L0.512547 45.8652L0.146346 45.7844ZM-1.32651 52.463C-1.5565 53.4302 -1.65974 54.3933 -1.37654 55.1234C-1.2321 55.4958 -0.987395 55.8069 -0.615299 56.0221C-0.246485 56.2354 0.234562 56.3472 0.842237 56.3472V55.9722C0.277923 55.9722 -0.132586 55.8681 -0.427544 55.6975C-0.719221 55.5288 -0.910509 55.2879 -1.02692 54.9878C-1.26543 54.3729 -1.18986 53.5093 -0.961682 52.5497L-1.32651 52.463ZM0.842237 56.3472H11.2911V55.9722H0.842237V56.3472ZM11.2911 56.3472C12.951 56.3472 14.157 56.1106 15.0502 55.415C15.9436 54.7191 16.4885 53.5917 16.8977 51.8999L16.5332 51.8118C16.1302 53.4781 15.6113 54.5026 14.8197 55.1191C14.0279 55.7359 12.9278 55.9722 11.2911 55.9722V56.3472ZM16.8979 51.8988L18.3525 45.7151L17.9875 45.6292L16.5329 51.8129L16.8979 51.8988ZM18.3524 45.7158C18.5886 44.7301 18.527 43.8732 18.0916 43.2577C17.6523 42.6369 16.8701 42.3132 15.7845 42.3132V42.6882C16.8018 42.6882 17.4425 42.9896 17.7854 43.4743C18.1321 43.9643 18.2118 44.6931 17.9877 45.6285L18.3524 45.7158ZM15.7845 42.3132H7.01466V42.6882H15.7845V42.3132ZM7.01466 42.3132C5.43123 42.3132 3.94763 42.4049 2.74558 42.8811C1.52891 43.3631 0.606156 44.2371 0.14973 45.7714L0.509163 45.8783C0.93118 44.4597 1.76859 43.6715 2.8837 43.2297C4.01343 42.7822 5.43321 42.6882 7.01466 42.6882V42.3132ZM11.4025 65.4279H-1.63069V65.8029H11.4025V65.4279ZM-1.63069 65.4279C-6.19006 65.4279 -8.6049 63.6839 -9.74879 61.3478C-10.9031 58.9905 -10.7862 55.9852 -10.1738 53.4343L-10.5385 53.3468C-11.16 55.9355 -11.2951 59.0426 -10.0856 61.5128C-8.86564 64.0042 -6.30081 65.8029 -1.63069 65.8029V65.4279ZM-10.1732 53.4319L-8.46589 45.8756L-8.83167 45.7929L-10.539 53.3492L-10.1732 53.4319ZM-8.46644 45.8779C-7.42915 41.548 -5.87309 38.3848 -3.52193 36.3024C-1.17441 34.2231 1.99081 33.1992 6.29425 33.1992V32.8242C1.93051 32.8242 -1.33418 33.8636 -3.77057 36.0216C-6.20333 38.1764 -7.7852 41.4246 -8.83112 45.7905L-8.46644 45.8779ZM6.29425 33.1992H18.6551V32.8242H6.29425V33.1992ZM18.6551 33.1992C20.9368 33.1992 22.6654 33.6738 23.9586 34.4528C25.2505 35.2311 26.1197 36.3203 26.6725 37.5706C27.7818 40.0797 27.616 43.238 27.0052 45.7906L27.3699 45.8779C27.9894 43.2888 28.1724 40.0357 27.0155 37.419C26.4352 36.1065 25.5175 34.9541 24.1521 34.1316C22.7878 33.3097 20.9885 32.8242 18.6551 32.8242V33.1992ZM27.0047 45.7928L25.2944 53.347L25.6601 53.4298L27.3704 45.8756L27.0047 45.7928ZM25.2949 53.3447C24.2569 57.6824 22.9166 60.693 20.7846 62.6239C18.6581 64.5499 15.7135 65.4279 11.4025 65.4279V65.8029C15.7608 65.8029 18.8131 64.9154 21.0364 62.9018C23.2542 60.8932 24.6166 57.7903 25.6596 53.432L25.2949 53.3447Z" fill="black"/>
<path fill-rule="evenodd" clip-rule="evenodd" d="M-11 0V88H88.3004L106 0H-11Z" fill="white"/>
<path fill-rule="evenodd" clip-rule="evenodd" d="M55.9917 24.7277C55.9917 21.6148 53.4394 19.0859 50.2979 19.0859C47.1614 19.0859 44.6055 21.6148 44.6055 24.7277C44.6055 27.8369 47.1614 30.3672 50.2979 30.3672C53.4394 30.3672 55.9917 27.8369 55.9917 24.7277Z" fill="#C8102E"/>
<path fill-rule="evenodd" clip-rule="evenodd" d="M33.0415 41.6116C32.9024 42.2346 33.2986 42.7375 33.9229 42.7375H41.6941L39.2562 53.628C38.0252 58.7676 39.4259 65.8529 48.6568 65.8529L60.2441 65.8905C60.8436 65.8905 61.4358 65.41 61.5691 64.8182L62.9305 58.7249C63.0638 58.133 62.6668 57.6142 62.0695 57.6142L51.4539 57.6164C48.8972 57.6164 48.7879 55.7329 49.2884 53.628L51.7613 42.7375H65.4216C66.0473 42.7375 66.6693 42.2346 66.8063 41.6116L68.4313 34.3454C68.5697 33.726 68.1749 33.2246 67.5492 33.2246H36.0512C35.4255 33.2246 34.8057 33.726 34.6666 34.3454L33.0415 41.6116Z" fill="#C8102E"/>
</svg>
